# xmcd CD database file
#
# Track frame offsets:
#	225
#	25369
#	42389
#	69740
#	82018
#	108557
#	130917
#	152443
#
# Disc length: 2294 seconds
#
# Revision: 0
# Processed by: cddbd v1.5.1PL0 Copyright (c) Steve Scherf et al.
# Submitted via: CDex 1.51
#
DISCID=6a08f308
DTITLE=The Exkursions - The Exkursions
DYEAR=1971
DGENRE=Blues
TTITLE0=Picture Woman
TTITLE1=Dry Ground
TTITLE2=Baby You Lied
TTITLE3=What Happened To Me
TTITLE4=Third Eye
TTITLE5=You and Me
TTITLE6=It's Been Set Down
TTITLE7=Would You Believe
EXTD=YEAR: 1971
EXTT0=
EXTT1=
EXTT2=
EXTT3=
EXTT4=
EXTT5=
EXTT6=
EXTT7=
PLAYORDER=
